<?xml version="1.0" standalone="no"?>
<!DOCTYPE svg PUBLIC "-//W3C//DTD SVG 20010904//EN"
 "http://www.w3.org/TR/2001/REC-SVG-20010904/DTD/svg10.dtd">
<svg version="1.0" xmlns="http://www.w3.org/2000/svg"
 width="500.000000pt" height="500.000000pt" viewBox="0 0 500.000000 500.000000"
 preserveAspectRatio="xMidYMid meet">

<g transform="translate(0.000000,500.000000) scale(0.100000,-0.100000)"
fill="#FF0000" stroke="none">
<path d="M1397 4603 c-3 -5 -210 -591 -462 -1303 -252 -712 -473 -1328 -491
-1369 -73 -159 -142 -207 -316 -217 -81 -5 -108 -10 -108 -21 0 -11 86 -13
495 -13 433 0 495 2 495 15 0 12 -13 15 -57 15 -117 0 -283 20 -337 41 -67 25
-97 62 -104 129 -6 69 7 118 130 465 61 171 117 329 125 353 l15 42 551 0 552
0 133 -373 c77 -218 136 -397 140 -432 11 -86 1 -133 -36 -166 -42 -37 -85
-48 -229 -55 -93 -5 -123 -10 -123 -21 0 -11 83 -13 470 -13 264 0 470 -4 470
-9 0 -21 -225 -641 -251 -694 -70 -137 -137 -179 -304 -187 -94 -4 -110 -7
-113 -22 -3 -17 26 -18 497 -18 494 0 501 0 501 20 0 19 -7 20 -142 20 -155 0
-251 16 -298 50 -56 40 -76 132 -50 232 9 33 139 408 202 581 10 27 10 27 109
27 78 0 99 3 99 14 0 9 -17 16 -52 21 -49 7 -118 29 -118 38 0 2 5 18 11 36
l11 31 548 0 548 0 40 -113 c22 -61 84 -233 137 -382 107 -297 122 -374 92
-447 -27 -64 -76 -82 -239 -86 -128 -4 -138 -5 -138 -23 0 -18 17 -19 596 -19
562 0 595 1 592 18 -2 13 -17 18 -63 23 -33 3 -74 13 -91 22 -50 26 -100 92
-137 181 -18 44 -254 667 -523 1383 l-489 1303 -131 0 -130 0 -335 -945 c-183
-520 -338 -944 -344 -942 -27 8 -131 271 -591 1495 l-497 1322 -128 0 c-70 0
-130 -3 -132 -7z m-17 -442 c47 -163 110 -346 326 -940 85 -233 154 -428 154
-432 0 -5 -238 -9 -530 -9 -291 0 -530 4 -530 8 0 5 108 317 240 693 305 869
292 831 296 826 2 -1 22 -67 44 -146z m2009 -868 c39 -144 158 -490 335 -976
91 -252 166 -460 166 -462 0 -3 -238 -5 -530 -5 -448 0 -530 2 -530 14 0 8 52
162 116 342 211 599 393 1120 399 1147 4 15 10 27 14 27 3 0 17 -39 30 -87z"/>
</g>
</svg>
